<?xml version="1.0" encoding="UTF-8"?><svg id="Layer_2" xmlns="http://www.w3.org/2000/svg" viewBox="0 0 128.82 11.32"><defs><style>.cls-1{stroke-width:0px;}</style></defs><g id="Layer_1-2"><path class="cls-1" d="m2.82,10.59c-.87-.49-1.55-1.16-2.06-2.02-.51-.86-.76-1.83-.76-2.92s.25-2.04.76-2.9c.51-.86,1.19-1.53,2.06-2.02.86-.49,1.81-.73,2.85-.73s2,.24,2.86.73c.86.49,1.54,1.16,2.04,2.02.5.86.75,1.83.75,2.9s-.25,2.06-.75,2.92c-.5.86-1.18,1.53-2.05,2.02s-1.81.73-2.85.73-1.98-.24-2.85-.73Zm4.61-1.7c.51-.3.9-.73,1.19-1.29.28-.56.43-1.21.43-1.95s-.14-1.38-.43-1.94c-.29-.55-.68-.98-1.19-1.27-.51-.3-1.09-.44-1.76-.44s-1.25.15-1.76.44c-.51.29-.91.72-1.19,1.27-.29.55-.43,1.2-.43,1.94s.14,1.39.43,1.95c.28.56.68.99,1.19,1.29s1.1.45,1.76.45,1.25-.15,1.76-.45Z"/><path class="cls-1" d="m16.66,9.45h3.64v1.76h-5.86V.16h2.22v9.29Z"/><path class="cls-1" d="m25.18,9.45h3.64v1.76h-5.86V.16h2.22v9.29Z"/><path class="cls-1" d="m33.69.16v11.05h-2.22V.16h2.22Z"/><path class="cls-1" d="m39.61,1.95v2.77h3.72v1.76h-3.72v2.93h4.2v1.8h-6.41V.14h6.41v1.8h-4.2Z"/><path class="cls-1" d="m60.23,6.47c.4.51.6,1.09.6,1.74,0,.59-.15,1.11-.44,1.56s-.71.8-1.26,1.05c-.55.25-1.2.38-1.95.38h-4.76V.16h4.56c.75,0,1.4.12,1.94.36.54.24.96.58,1.23,1.01s.42.92.42,1.47c0,.64-.17,1.18-.51,1.61-.34.43-.8.74-1.37.92.62.12,1.13.43,1.54.93Zm-5.59-1.76h2.03c.53,0,.93-.12,1.22-.36s.43-.58.43-1.02-.14-.79-.43-1.03-.69-.36-1.22-.36h-2.03v2.77Zm3.49,4.31c.3-.25.45-.61.45-1.08s-.16-.85-.47-1.12c-.32-.27-.74-.4-1.28-.4h-2.18v2.98h2.23c.54,0,.96-.13,1.26-.38Z"/><path class="cls-1" d="m70.41,9.1h-4.4l-.73,2.11h-2.33L66.93.14h2.58l3.97,11.06h-2.34l-.73-2.11Zm-.6-1.77l-1.6-4.62-1.6,4.62h3.2Z"/><path class="cls-1" d="m81.89,11.21l-2.44-4.31h-1.04v4.31h-2.22V.16h4.15c.85,0,1.58.15,2.18.45.6.3,1.05.71,1.35,1.22s.45,1.08.45,1.72c0,.73-.21,1.38-.63,1.97s-1.05.99-1.88,1.21l2.64,4.48h-2.56Zm-3.48-5.97h1.85c.6,0,1.05-.14,1.34-.43.3-.29.44-.69.44-1.21s-.15-.9-.44-1.18c-.29-.28-.74-.42-1.34-.42h-1.85v3.24Z"/><path class="cls-1" d="m95.46,6.47c.4.51.6,1.09.6,1.74,0,.59-.15,1.11-.44,1.56s-.71.8-1.26,1.05c-.55.25-1.2.38-1.95.38h-4.76V.16h4.56c.75,0,1.4.12,1.94.36.54.24.96.58,1.23,1.01s.42.92.42,1.47c0,.64-.17,1.18-.51,1.61-.34.43-.8.74-1.37.92.62.12,1.13.43,1.54.93Zm-5.59-1.76h2.03c.53,0,.93-.12,1.22-.36s.43-.58.43-1.02-.14-.79-.43-1.03-.69-.36-1.22-.36h-2.03v2.77Zm3.49,4.31c.3-.25.45-.61.45-1.08s-.16-.85-.47-1.12c-.32-.27-.74-.4-1.28-.4h-2.18v2.98h2.23c.54,0,.96-.13,1.26-.38Z"/><path class="cls-1" d="m101.57.16v11.05h-2.22V.16h2.22Z"/><path class="cls-1" d="m107.5,1.95v2.77h3.72v1.76h-3.72v2.93h4.2v1.8h-6.41V.14h6.41v1.8h-4.2Z"/><path class="cls-1" d="m120.84,11.21l-2.44-4.31h-1.04v4.31h-2.22V.16h4.15c.85,0,1.58.15,2.18.45.6.3,1.05.71,1.35,1.22s.45,1.08.45,1.72c0,.73-.21,1.38-.63,1.97s-1.05.99-1.88,1.21l2.64,4.48h-2.56Zm-3.48-5.97h1.85c.6,0,1.05-.14,1.34-.43.3-.29.44-.69.44-1.21s-.15-.9-.44-1.18c-.29-.28-.74-.42-1.34-.42h-1.85v3.24Z"/><path class="cls-1" d="m128.82.16v11.05h-2.22V.16h2.22Z"/></g></svg>